<?xml version="1.0" standalone="no"?>
<!DOCTYPE svg PUBLIC "-//W3C//DTD SVG 20010904//EN"
 "http://www.w3.org/TR/2001/REC-SVG-20010904/DTD/svg10.dtd">
<svg version="1.0" xmlns="http://www.w3.org/2000/svg"
 width="130.000000pt" height="130.000000pt" viewBox="0 0 130.000000 130.000000"
 preserveAspectRatio="xMidYMid meet">

<g transform="translate(0.000000,130.000000) scale(0.100000,-0.100000)"
fill="#000000" stroke="none">
<path d="M0 650 l0 -650 650 0 650 0 0 650 0 650 -650 0 -650 0 0 -650z m805
605 c97 -22 186 -77 247 -153 9 -12 35 -58 57 -104 38 -80 59 -178 52 -248 -3
-39 -22 -90 -32 -90 -5 0 -8 -3 -7 -7 4 -18 -25 -59 -53 -75 -43 -25 -48 -51
-33 -148 14 -84 13 -86 -12 -137 -31 -65 -85 -94 -170 -94 -31 0 -58 2 -62 5
-3 3 -8 22 -11 43 -5 31 -13 40 -51 60 -24 13 -48 29 -52 36 -5 9 -11 6 -22
-8 -12 -16 -18 -18 -33 -9 -26 16 -27 49 -3 72 20 18 21 24 11 55 -16 47 -32
58 -76 55 -46 -3 -72 -38 -81 -111 -6 -44 -9 -47 -35 -47 -56 0 -71 -61 -43
-181 6 -26 5 -27 -47 -20 -4 1 -21 16 -39 34 -35 35 -74 109 -75 144 0 12 -4
25 -8 29 -10 10 -9 92 3 152 17 91 21 179 8 209 -14 33 -18 153 -6 153 5 0 7
4 4 9 -11 17 49 161 66 161 5 0 8 6 8 13 0 15 66 80 115 113 67 47 148 84 181
84 19 0 34 3 34 8 0 13 103 11 165 -3z m-265 -885 c0 -33 -19 -40 -40 -15 -16
20 -5 45 20 45 16 0 20 -7 20 -30z"/>
<path d="M484 973 c4 -6 2 -14 -4 -18 -5 -3 -10 -1 -10 4 0 6 -7 11 -15 11
-28 0 -65 -32 -93 -79 -25 -43 -27 -52 -24 -151 4 -172 5 -175 31 -172 30 3
80 45 108 91 49 78 78 260 47 289 -8 7 -14 10 -14 5 0 -4 -7 2 -16 13 -8 10
-13 14 -10 7z"/>
<path d="M800 920 c0 -3 -10 -10 -22 -15 -18 -9 -68 -88 -75 -120 -1 -5 -7
-31 -14 -57 -9 -41 -8 -56 11 -112 12 -36 31 -77 42 -92 20 -24 108 -74 134
-74 6 0 16 19 23 41 7 23 30 78 52 122 21 44 39 94 39 110 0 36 -20 97 -32 97
-4 0 -8 7 -8 15 0 8 -5 15 -11 15 -5 0 -7 5 -4 10 3 6 -2 13 -12 17 -10 4 -28
18 -41 30 -20 20 -26 22 -40 11 -10 -9 -13 -9 -9 -1 5 8 0 11 -13 10 -11 -1
-20 -4 -20 -7z"/>
</g>
</svg>
